# xmcd
#
# Track frame offsets: 
#        150
#        13855
#        27520
#
# Disc length: 557 seconds
#
# Revision: 0
# Processed by: cddbd v1.5.2PL0 Copyright (c) Steve Scherf et al.
# Submitted via: ExactAudioCopyFreeDBPlugin 1.0
#
DISCID=1e022b03
DTITLE=Heimo Röck - Anna
DYEAR=1994
DGENRE=Schlager
TTITLE0=Anna
TTITLE1=Slip away
TTITLE2=Fire
EXTD=
EXTT0=
EXTT1=
EXTT2=
PLAYORDER=
